# xmcd CD database file
#
# Track frame offsets:
#	150
#	19037
#	35705
#
# Disc length: 653 seconds
#
# Revision: 0
# Processed by: cddbd v1.5PL3 Copyright (c) Steve Scherf et al.
# Submitted via: CDex 1.50Beta6
#
DISCID=1d028b03
DTITLE=ends - SWEET DREAMS FOREVER
DYEAR=2000
DGENRE=JPop
TTITLE0=SWEET DREAMS FOREVER
TTITLE1=A ROOTER'S SONG
TTITLE2=elegie 〜theme from woodland fairy〜
EXTD=YEAR: 2000
EXTT0=
EXTT1=
EXTT2=
PLAYORDER=
